<mxfile host="app.diagrams.net" modified="2022-04-25T03:35:53.823Z" agent="5.0 (Windows NT 10.0; Win64; x64) AppleWebKit/537.36 (KHTML, like Gecko) Chrome/95.0.4638.54 Safari/537.36" etag="ougsyeW7d4z0nGLVVd-5" version="17.4.6" type="github">
  <diagram id="C5RBs43oDa-KdzZeNtuy" name="Page-1">
    <mxGraphModel dx="2249" dy="762" grid="1" gridSize="10" guides="1" tooltips="1" connect="1" arrows="1" fold="1" page="1" pageScale="1" pageWidth="827" pageHeight="1169" math="0" shadow="0">
      <root>
        <mxCell id="WIyWlLk6GJQsqaUBKTNV-0" />
        <mxCell id="WIyWlLk6GJQsqaUBKTNV-1" parent="WIyWlLk6GJQsqaUBKTNV-0" />
        <mxCell id="rNd7bi2sPKtid_-uwFBT-2" value="" style="edgeStyle=orthogonalEdgeStyle;rounded=0;orthogonalLoop=1;jettySize=auto;html=1;" parent="WIyWlLk6GJQsqaUBKTNV-1" source="rNd7bi2sPKtid_-uwFBT-0" target="rNd7bi2sPKtid_-uwFBT-1" edge="1">
          <mxGeometry relative="1" as="geometry" />
        </mxCell>
        <mxCell id="rNd7bi2sPKtid_-uwFBT-0" value="启动（职权，申请，建议）" style="rounded=0;whiteSpace=wrap;html=1;fillColor=#ffe6cc;strokeColor=#d79b00;" parent="WIyWlLk6GJQsqaUBKTNV-1" vertex="1">
          <mxGeometry x="60" y="1090" width="110" height="30" as="geometry" />
        </mxCell>
        <mxCell id="rNd7bi2sPKtid_-uwFBT-8" value="" style="edgeStyle=orthogonalEdgeStyle;rounded=0;orthogonalLoop=1;jettySize=auto;html=1;" parent="WIyWlLk6GJQsqaUBKTNV-1" source="rNd7bi2sPKtid_-uwFBT-1" target="rNd7bi2sPKtid_-uwFBT-7" edge="1">
          <mxGeometry relative="1" as="geometry" />
        </mxCell>
        <mxCell id="rNd7bi2sPKtid_-uwFBT-10" value="" style="edgeStyle=orthogonalEdgeStyle;rounded=0;orthogonalLoop=1;jettySize=auto;html=1;" parent="WIyWlLk6GJQsqaUBKTNV-1" source="rNd7bi2sPKtid_-uwFBT-1" target="rNd7bi2sPKtid_-uwFBT-9" edge="1">
          <mxGeometry relative="1" as="geometry" />
        </mxCell>
        <mxCell id="rNd7bi2sPKtid_-uwFBT-1" value="是否立案（正副监察长））" style="rounded=0;whiteSpace=wrap;html=1;fillColor=#60a917;fontColor=#ffffff;strokeColor=#2D7600;" parent="WIyWlLk6GJQsqaUBKTNV-1" vertex="1">
          <mxGeometry x="223" y="1090" width="90" height="30" as="geometry" />
        </mxCell>
        <mxCell id="rNd7bi2sPKtid_-uwFBT-12" value="" style="edgeStyle=orthogonalEdgeStyle;rounded=0;orthogonalLoop=1;jettySize=auto;html=1;" parent="WIyWlLk6GJQsqaUBKTNV-1" source="rNd7bi2sPKtid_-uwFBT-7" target="rNd7bi2sPKtid_-uwFBT-11" edge="1">
          <mxGeometry relative="1" as="geometry" />
        </mxCell>
        <mxCell id="rNd7bi2sPKtid_-uwFBT-7" value="不立案" style="rounded=0;whiteSpace=wrap;html=1;fillColor=#fff2cc;strokeColor=#d6b656;" parent="WIyWlLk6GJQsqaUBKTNV-1" vertex="1">
          <mxGeometry x="333" y="970" width="80" height="20" as="geometry" />
        </mxCell>
        <mxCell id="rNd7bi2sPKtid_-uwFBT-14" value="" style="edgeStyle=orthogonalEdgeStyle;rounded=0;orthogonalLoop=1;jettySize=auto;html=1;" parent="WIyWlLk6GJQsqaUBKTNV-1" target="rNd7bi2sPKtid_-uwFBT-13" edge="1">
          <mxGeometry relative="1" as="geometry">
            <mxPoint x="473" y="1190" as="sourcePoint" />
          </mxGeometry>
        </mxCell>
        <mxCell id="rNd7bi2sPKtid_-uwFBT-16" value="" style="edgeStyle=orthogonalEdgeStyle;rounded=0;orthogonalLoop=1;jettySize=auto;html=1;" parent="WIyWlLk6GJQsqaUBKTNV-1" source="rNd7bi2sPKtid_-uwFBT-9" target="rNd7bi2sPKtid_-uwFBT-15" edge="1">
          <mxGeometry relative="1" as="geometry">
            <mxPoint x="473" y="1190" as="sourcePoint" />
            <Array as="points">
              <mxPoint x="523" y="1190" />
            </Array>
          </mxGeometry>
        </mxCell>
        <mxCell id="rNd7bi2sPKtid_-uwFBT-9" value="立案（三秘不公开）" style="rounded=0;whiteSpace=wrap;html=1;fillColor=#fff2cc;strokeColor=#d6b656;" parent="WIyWlLk6GJQsqaUBKTNV-1" vertex="1">
          <mxGeometry x="328" y="1180" width="90" height="30" as="geometry" />
        </mxCell>
        <mxCell id="rNd7bi2sPKtid_-uwFBT-11" value="通知申请人" style="rounded=0;whiteSpace=wrap;html=1;" parent="WIyWlLk6GJQsqaUBKTNV-1" vertex="1">
          <mxGeometry x="493" y="970" width="80" height="20" as="geometry" />
        </mxCell>
        <mxCell id="rNd7bi2sPKtid_-uwFBT-20" value="" style="edgeStyle=orthogonalEdgeStyle;rounded=0;orthogonalLoop=1;jettySize=auto;html=1;" parent="WIyWlLk6GJQsqaUBKTNV-1" source="rNd7bi2sPKtid_-uwFBT-13" target="rNd7bi2sPKtid_-uwFBT-17" edge="1">
          <mxGeometry relative="1" as="geometry" />
        </mxCell>
        <mxCell id="rNd7bi2sPKtid_-uwFBT-26" value="" style="edgeStyle=orthogonalEdgeStyle;rounded=0;orthogonalLoop=1;jettySize=auto;html=1;" parent="WIyWlLk6GJQsqaUBKTNV-1" source="rNd7bi2sPKtid_-uwFBT-13" target="rNd7bi2sPKtid_-uwFBT-24" edge="1">
          <mxGeometry relative="1" as="geometry" />
        </mxCell>
        <mxCell id="rNd7bi2sPKtid_-uwFBT-13" value="应当建议" style="rounded=0;whiteSpace=wrap;html=1;fillColor=#f8cecc;strokeColor=#b85450;" parent="WIyWlLk6GJQsqaUBKTNV-1" vertex="1">
          <mxGeometry x="483" y="1130" width="80" height="20" as="geometry" />
        </mxCell>
        <mxCell id="rNd7bi2sPKtid_-uwFBT-22" style="edgeStyle=orthogonalEdgeStyle;rounded=0;orthogonalLoop=1;jettySize=auto;html=1;entryX=0.5;entryY=1;entryDx=0;entryDy=0;" parent="WIyWlLk6GJQsqaUBKTNV-1" source="rNd7bi2sPKtid_-uwFBT-15" target="rNd7bi2sPKtid_-uwFBT-17" edge="1">
          <mxGeometry relative="1" as="geometry" />
        </mxCell>
        <mxCell id="rNd7bi2sPKtid_-uwFBT-15" value="可以建议" style="rounded=0;whiteSpace=wrap;html=1;fillColor=#f8cecc;strokeColor=#b85450;" parent="WIyWlLk6GJQsqaUBKTNV-1" vertex="1">
          <mxGeometry x="483" y="1230" width="80" height="20" as="geometry" />
        </mxCell>
        <mxCell id="rNd7bi2sPKtid_-uwFBT-17" value="10后，纠正意见" style="rounded=0;whiteSpace=wrap;html=1;fillColor=#e1d5e7;strokeColor=#9673a6;" parent="WIyWlLk6GJQsqaUBKTNV-1" vertex="1">
          <mxGeometry x="643" y="1180" width="100" height="20" as="geometry" />
        </mxCell>
        <mxCell id="rNd7bi2sPKtid_-uwFBT-24" value="罪轻，不是有期，符合取，监局，期限届满。" style="rounded=0;whiteSpace=wrap;html=1;fillColor=#008a00;fontColor=#ffffff;strokeColor=#005700;" parent="WIyWlLk6GJQsqaUBKTNV-1" vertex="1">
          <mxGeometry x="462" y="1050" width="122" height="40" as="geometry" />
        </mxCell>
        <mxCell id="uQ3uLvB0-VMOLrYaWf_j-2" value="" style="edgeStyle=orthogonalEdgeStyle;rounded=0;orthogonalLoop=1;jettySize=auto;html=1;" parent="WIyWlLk6GJQsqaUBKTNV-1" source="uQ3uLvB0-VMOLrYaWf_j-0" target="uQ3uLvB0-VMOLrYaWf_j-1" edge="1">
          <mxGeometry relative="1" as="geometry" />
        </mxCell>
        <mxCell id="uQ3uLvB0-VMOLrYaWf_j-4" value="" style="edgeStyle=orthogonalEdgeStyle;rounded=0;orthogonalLoop=1;jettySize=auto;html=1;" parent="WIyWlLk6GJQsqaUBKTNV-1" source="uQ3uLvB0-VMOLrYaWf_j-0" target="uQ3uLvB0-VMOLrYaWf_j-3" edge="1">
          <mxGeometry relative="1" as="geometry" />
        </mxCell>
        <mxCell id="uQ3uLvB0-VMOLrYaWf_j-21" value="" style="edgeStyle=orthogonalEdgeStyle;rounded=0;orthogonalLoop=1;jettySize=auto;html=1;" parent="WIyWlLk6GJQsqaUBKTNV-1" source="uQ3uLvB0-VMOLrYaWf_j-0" target="uQ3uLvB0-VMOLrYaWf_j-20" edge="1">
          <mxGeometry relative="1" as="geometry" />
        </mxCell>
        <mxCell id="uQ3uLvB0-VMOLrYaWf_j-0" value="是否逮捕" style="whiteSpace=wrap;html=1;fillColor=#e1d5e7;strokeColor=#9673a6;" parent="WIyWlLk6GJQsqaUBKTNV-1" vertex="1">
          <mxGeometry x="69" y="420" width="90" height="30" as="geometry" />
        </mxCell>
        <mxCell id="uQ3uLvB0-VMOLrYaWf_j-12" value="" style="edgeStyle=orthogonalEdgeStyle;rounded=0;orthogonalLoop=1;jettySize=auto;html=1;" parent="WIyWlLk6GJQsqaUBKTNV-1" source="uQ3uLvB0-VMOLrYaWf_j-1" target="uQ3uLvB0-VMOLrYaWf_j-11" edge="1">
          <mxGeometry relative="1" as="geometry" />
        </mxCell>
        <mxCell id="uQ3uLvB0-VMOLrYaWf_j-57" value="" style="edgeStyle=orthogonalEdgeStyle;rounded=0;orthogonalLoop=1;jettySize=auto;html=1;" parent="WIyWlLk6GJQsqaUBKTNV-1" source="uQ3uLvB0-VMOLrYaWf_j-1" target="uQ3uLvB0-VMOLrYaWf_j-11" edge="1">
          <mxGeometry relative="1" as="geometry" />
        </mxCell>
        <mxCell id="uQ3uLvB0-VMOLrYaWf_j-1" value="不逮捕（检察长）" style="whiteSpace=wrap;html=1;fillColor=#ffe6cc;strokeColor=#d79b00;" parent="WIyWlLk6GJQsqaUBKTNV-1" vertex="1">
          <mxGeometry x="199" y="270" width="90" height="30" as="geometry" />
        </mxCell>
        <mxCell id="uQ3uLvB0-VMOLrYaWf_j-23" value="" style="edgeStyle=orthogonalEdgeStyle;rounded=0;orthogonalLoop=1;jettySize=auto;html=1;" parent="WIyWlLk6GJQsqaUBKTNV-1" source="uQ3uLvB0-VMOLrYaWf_j-3" target="uQ3uLvB0-VMOLrYaWf_j-22" edge="1">
          <mxGeometry relative="1" as="geometry" />
        </mxCell>
        <mxCell id="uQ3uLvB0-VMOLrYaWf_j-27" value="" style="edgeStyle=orthogonalEdgeStyle;rounded=0;orthogonalLoop=1;jettySize=auto;html=1;" parent="WIyWlLk6GJQsqaUBKTNV-1" source="uQ3uLvB0-VMOLrYaWf_j-3" target="uQ3uLvB0-VMOLrYaWf_j-26" edge="1">
          <mxGeometry relative="1" as="geometry" />
        </mxCell>
        <mxCell id="uQ3uLvB0-VMOLrYaWf_j-30" style="edgeStyle=orthogonalEdgeStyle;rounded=0;orthogonalLoop=1;jettySize=auto;html=1;" parent="WIyWlLk6GJQsqaUBKTNV-1" source="uQ3uLvB0-VMOLrYaWf_j-3" target="uQ3uLvB0-VMOLrYaWf_j-7" edge="1">
          <mxGeometry relative="1" as="geometry" />
        </mxCell>
        <mxCell id="uQ3uLvB0-VMOLrYaWf_j-32" value="" style="edgeStyle=orthogonalEdgeStyle;rounded=0;orthogonalLoop=1;jettySize=auto;html=1;" parent="WIyWlLk6GJQsqaUBKTNV-1" source="uQ3uLvB0-VMOLrYaWf_j-3" target="uQ3uLvB0-VMOLrYaWf_j-31" edge="1">
          <mxGeometry relative="1" as="geometry" />
        </mxCell>
        <mxCell id="uQ3uLvB0-VMOLrYaWf_j-3" value="逮捕" style="whiteSpace=wrap;html=1;fillColor=#ffe6cc;strokeColor=#d79b00;" parent="WIyWlLk6GJQsqaUBKTNV-1" vertex="1">
          <mxGeometry x="198.5" y="600" width="90" height="30" as="geometry" />
        </mxCell>
        <mxCell id="uQ3uLvB0-VMOLrYaWf_j-25" value="" style="edgeStyle=orthogonalEdgeStyle;rounded=0;orthogonalLoop=1;jettySize=auto;html=1;" parent="WIyWlLk6GJQsqaUBKTNV-1" source="uQ3uLvB0-VMOLrYaWf_j-7" target="uQ3uLvB0-VMOLrYaWf_j-24" edge="1">
          <mxGeometry relative="1" as="geometry" />
        </mxCell>
        <mxCell id="uQ3uLvB0-VMOLrYaWf_j-7" value="应当问" style="whiteSpace=wrap;html=1;fillColor=#f8cecc;strokeColor=#b85450;" parent="WIyWlLk6GJQsqaUBKTNV-1" vertex="1">
          <mxGeometry x="350" y="520" width="90" height="30" as="geometry" />
        </mxCell>
        <mxCell id="uQ3uLvB0-VMOLrYaWf_j-15" value="" style="edgeStyle=orthogonalEdgeStyle;rounded=0;orthogonalLoop=1;jettySize=auto;html=1;" parent="WIyWlLk6GJQsqaUBKTNV-1" source="uQ3uLvB0-VMOLrYaWf_j-11" target="uQ3uLvB0-VMOLrYaWf_j-14" edge="1">
          <mxGeometry relative="1" as="geometry" />
        </mxCell>
        <mxCell id="uQ3uLvB0-VMOLrYaWf_j-11" value="说理，补侦，退回" style="whiteSpace=wrap;html=1;" parent="WIyWlLk6GJQsqaUBKTNV-1" vertex="1">
          <mxGeometry x="193" y="190" width="101" height="30" as="geometry" />
        </mxCell>
        <mxCell id="uQ3uLvB0-VMOLrYaWf_j-14" value="公安有异议" style="shape=umlActor;verticalLabelPosition=bottom;verticalAlign=top;html=1;fontFamily=Helvetica;fontSize=12;fontColor=default;align=center;strokeColor=#b85450;fillColor=#f8cecc;" parent="WIyWlLk6GJQsqaUBKTNV-1" vertex="1">
          <mxGeometry x="390" y="185" width="30" height="41" as="geometry" />
        </mxCell>
        <mxCell id="uQ3uLvB0-VMOLrYaWf_j-19" value="" style="edgeStyle=orthogonalEdgeStyle;rounded=0;orthogonalLoop=1;jettySize=auto;html=1;startArrow=none;" parent="WIyWlLk6GJQsqaUBKTNV-1" target="uQ3uLvB0-VMOLrYaWf_j-18" edge="1">
          <mxGeometry relative="1" as="geometry">
            <mxPoint x="449.13000000000056" y="205" as="sourcePoint" />
          </mxGeometry>
        </mxCell>
        <mxCell id="uQ3uLvB0-VMOLrYaWf_j-18" value="复议复核（立刻释放）" style="whiteSpace=wrap;html=1;" parent="WIyWlLk6GJQsqaUBKTNV-1" vertex="1">
          <mxGeometry x="509.5" y="190" width="125.5" height="30" as="geometry" />
        </mxCell>
        <mxCell id="uQ3uLvB0-VMOLrYaWf_j-20" value="申请批准（公法）" style="whiteSpace=wrap;html=1;fillColor=#f8cecc;strokeColor=#b85450;" parent="WIyWlLk6GJQsqaUBKTNV-1" vertex="1">
          <mxGeometry x="-129" y="420" width="109" height="30" as="geometry" />
        </mxCell>
        <mxCell id="uQ3uLvB0-VMOLrYaWf_j-22" value="逮捕条件（证据，有期，危险）， 漏人要求或建议" style="whiteSpace=wrap;html=1;fillColor=#e1d5e7;strokeColor=#9673a6;" parent="WIyWlLk6GJQsqaUBKTNV-1" vertex="1">
          <mxGeometry x="183.5" y="780" width="121" height="40" as="geometry" />
        </mxCell>
        <mxCell id="uQ3uLvB0-VMOLrYaWf_j-24" value="逮面重认盲井未" style="whiteSpace=wrap;html=1;" parent="WIyWlLk6GJQsqaUBKTNV-1" vertex="1">
          <mxGeometry x="350" y="430" width="90" height="30" as="geometry" />
        </mxCell>
        <mxCell id="uQ3uLvB0-VMOLrYaWf_j-26" value="24 送看，通知，讯问" style="whiteSpace=wrap;html=1;fillColor=#f8cecc;strokeColor=#b85450;" parent="WIyWlLk6GJQsqaUBKTNV-1" vertex="1">
          <mxGeometry x="350" y="683" width="90" height="30" as="geometry" />
        </mxCell>
        <mxCell id="uQ3uLvB0-VMOLrYaWf_j-28" style="edgeStyle=orthogonalEdgeStyle;rounded=0;orthogonalLoop=1;jettySize=auto;html=1;exitX=0.75;exitY=0;exitDx=0;exitDy=0;entryX=0.733;entryY=0.333;entryDx=0;entryDy=0;entryPerimeter=0;" parent="WIyWlLk6GJQsqaUBKTNV-1" source="uQ3uLvB0-VMOLrYaWf_j-3" target="uQ3uLvB0-VMOLrYaWf_j-3" edge="1">
          <mxGeometry relative="1" as="geometry">
            <Array as="points">
              <mxPoint x="265" y="600" />
            </Array>
          </mxGeometry>
        </mxCell>
        <mxCell id="uQ3uLvB0-VMOLrYaWf_j-31" value="无罪等，变更或释放" style="whiteSpace=wrap;html=1;fillColor=#ffe6cc;strokeColor=#d79b00;" parent="WIyWlLk6GJQsqaUBKTNV-1" vertex="1">
          <mxGeometry x="509.5" y="600" width="110.5" height="30" as="geometry" />
        </mxCell>
      </root>
    </mxGraphModel>
  </diagram>
</mxfile>
